<svg xmlns="http://www.w3.org/2000/svg" xmlns:xlink="http://www.w3.org/1999/xlink" width="400" height="360" viewBox="0 0 400 360"><defs><clipPath id="a"><rect width="400" height="360" transform="translate(-3848.233 -478.5)" fill="none"/></clipPath><clipPath id="b"><path d="M-3612.593-346.691h18.17a2.025,2.025,0,0,0,2.025-2.025v-87.668a2.025,2.025,0,0,0-2.025-2.025h-18.17a2.025,2.025,0,0,0-2.025,2.025v87.668a2.025,2.025,0,0,0,2.025,2.025" fill="none"/></clipPath></defs><g transform="translate(3848.233 478.5)"><g clip-path="url(#a)"><path d="M-3448.234-320.018c0,99.412-56.12,201.518-207.439,201.518-110.457,0-192.561-28.184-192.561-162.184,0-99.411,55.318-197.816,227.169-197.816C-3510.608-478.5-3448.234-419.429-3448.234-320.018Z" fill="#aeefff"/><path d="M-3453.639-319.436c0,96.724-48.638,196.071-156.11,196.071s-233.079-61.076-233.079-157.8S-3729.27-473.635-3621.8-473.635-3453.639-416.16-3453.639-319.436Z" fill="#e0e8f3"/><rect width="141.751" height="141.751" rx="16.2" transform="translate(-3804.109 -275.326)" fill="#d96c92"/><rect width="141.751" height="141.751" rx="16.2" transform="translate(-3804.109 -283.426)" fill="#ed93b3"/><circle cx="11.805" cy="11.805" r="11.805" transform="translate(-3745.039 -224.355)" fill="#526bff"/><circle cx="6.532" cy="6.532" r="6.532" transform="translate(-3741.197 -220.514)" fill="#649cff"/><path d="M-3733.234-157.27c-14.052,0-25.06-24.282-25.06-55.28s11.008-55.281,25.06-55.281v6.075c-8.98,0-18.985,20.208-18.985,49.206s10,49.205,18.985,49.205Z" fill="#faff94"/><path d="M-3685.36-184.91l-5.26-3.038c2.257-3.91.342-10.393-5.256-17.784-6.227-8.219-16.123-16.481-27.865-23.261s-23.845-11.218-34.077-12.5c-9.2-1.156-15.771.428-18.029,4.34l-5.26-3.038c3.589-6.22,12.128-8.823,24.045-7.33,11.018,1.381,23.93,6.092,36.358,13.268s22.966,16,29.671,24.853C-3683.783-199.828-3681.768-191.13-3685.36-184.91Z" fill="#84cc5e"/><path d="M-3781.107-184.91c-3.592-6.22-1.577-14.918,5.673-24.49,6.705-8.851,17.243-17.677,29.671-24.853s25.34-11.887,36.358-13.268c11.918-1.49,20.456,1.111,24.045,7.33l-5.26,3.038c-2.26-3.912-8.834-5.494-18.03-4.34-10.231,1.282-22.334,5.721-34.076,12.5s-21.638,15.042-27.865,23.261c-5.6,7.391-7.513,13.874-5.256,17.784Z" fill="#70f2ec"/><path d="M-3703.174-177.168a50.266,50.266,0,0,1-6.231-.411c-11.018-1.382-23.93-6.093-36.358-13.269s-22.966-16-29.671-24.853c-7.25-9.572-9.265-18.269-5.673-24.49l5.26,3.038c-2.257,3.912-.342,10.393,5.256,17.784,6.227,8.221,16.123,16.481,27.865,23.261s23.845,11.219,34.076,12.5c9.2,1.153,15.77-.429,18.03-4.34l5.26,3.038C-3688.289-179.836-3694.512-177.168-3703.174-177.168Z" fill="#84cc5e"/><path d="M-3763.293-177.168c-8.663,0-14.885-2.668-17.814-7.742l5.26-3.038c2.258,3.911,8.833,5.492,18.029,4.34,10.232-1.281,22.335-5.721,34.077-12.5s21.638-15.04,27.865-23.261c5.6-7.391,7.513-13.872,5.256-17.784l5.26-3.038c3.592,6.221,1.577,14.918-5.673,24.49-6.705,8.852-17.243,17.679-29.671,24.853s-25.34,11.887-36.358,13.269A50.263,50.263,0,0,1-3763.293-177.168Z" fill="#70f2ec"/><path d="M-3733.234-157.27v-6.075c8.981,0,18.986-20.207,18.986-49.205s-10-49.206-18.986-49.206v-6.075c14.053,0,25.061,24.283,25.061,55.281S-3719.181-157.27-3733.234-157.27Z" fill="#faff94"/><path d="M-3715.269-256.594a6.16,6.16,0,0,1-6.159,6.16,6.16,6.16,0,0,1-6.16-6.16,6.16,6.16,0,0,1,6.16-6.16A6.16,6.16,0,0,1-3715.269-256.594Z" fill="#d7df23"/><path d="M-3690.286-180.824a6.16,6.16,0,0,1-6.16,6.159,6.16,6.16,0,0,1-6.159-6.159,6.159,6.159,0,0,1,6.159-6.16A6.16,6.16,0,0,1-3690.286-180.824Z" fill="#1b75bc"/><path d="M-3769.979-222.337a6.16,6.16,0,0,1-6.16,6.159,6.16,6.16,0,0,1-6.159-6.159,6.159,6.159,0,0,1,6.159-6.16A6.159,6.159,0,0,1-3769.979-222.337Z" fill="#a761d1"/><path d="M-3738.963-211.538a1.012,1.012,0,0,1-1.013-1.012,6.751,6.751,0,0,1,6.742-6.743,1.012,1.012,0,0,1,1.013,1.013,1.012,1.012,0,0,1-1.013,1.012,4.723,4.723,0,0,0-4.717,4.718A1.012,1.012,0,0,1-3738.963-211.538Z" fill="#fff"/><path d="M-3796.009-267.226a8.11,8.11,0,0,1,8.1-8.1" fill="none" stroke="#fff" stroke-linecap="round" stroke-miterlimit="10" stroke-width="2.025"/><path d="M-3736.06-275.326h7.927" fill="none" stroke="#fff" stroke-linecap="round" stroke-miterlimit="10" stroke-width="2.025"/><path d="M-3761.687-275.326h20.7" fill="none" stroke="#fff" stroke-linecap="round" stroke-miterlimit="10" stroke-width="2.025"/><path d="M-3787.909-275.326h20.7" fill="none" stroke="#fff" stroke-linecap="round" stroke-miterlimit="10" stroke-width="2.025"/><path d="M-3796.009-251.734v-15.492" fill="none" stroke="#fff" stroke-linecap="round" stroke-miterlimit="10" stroke-width="2.025"/><path d="M-3796.009-239.056v-6.685" fill="none" stroke="#fff" stroke-linecap="round" stroke-miterlimit="10" stroke-width="2.025"/><rect width="141.751" height="141.751" rx="16.2" transform="translate(-3634.109 -275.326)" fill="#ebb13f"/><rect width="141.751" height="141.751" rx="16.2" transform="translate(-3634.109 -283.426)" fill="#ffcb64"/><path d="M-3550.944-258.763v26.426a23.308,23.308,0,0,0,3.434,12.18l24.342,39.74a10.942,10.942,0,0,1-9.331,16.657h-63.585a10.942,10.942,0,0,1-9.33-16.657l24.341-39.74a23.317,23.317,0,0,0,3.434-12.18v-26.426h26.695" fill="#bdffff"/><path d="M-3605.414-180.417a10.942,10.942,0,0,0,9.33,16.657h63.585a10.942,10.942,0,0,0,9.331-16.657l-18.894-30.844h-44.459l-18.893,30.844" fill="#ba54ea"/><path d="M-3532.5-161.587h-63.585a12.958,12.958,0,0,1-11.441-6.7,12.961,12.961,0,0,1,.258-13.261l24.341-39.74a21.137,21.137,0,0,0,3.114-11.045v-26.426h4.346v26.426a25.474,25.474,0,0,1-3.754,13.315l-24.341,39.74a8.667,8.667,0,0,0-.172,8.865,8.663,8.663,0,0,0,7.649,4.484h63.585a8.663,8.663,0,0,0,7.65-4.484,8.667,8.667,0,0,0-.172-8.865l-24.342-39.74a25.474,25.474,0,0,1-3.754-13.315v-26.426h4.346v26.426a21.137,21.137,0,0,0,3.114,11.045l24.342,39.74a12.962,12.962,0,0,1,.258,13.261,12.962,12.962,0,0,1-11.442,6.7" fill="#bdffff"/><path d="M-3554.428-254.013h-21.037v5.931h21.037v-5.931" fill="#a3d3d0"/><path d="M-3575.466-254.013h-4.346v5.931h4.346v-5.931" fill="#a3d3d0"/><path d="M-3547.975-254.013h-32.633a4.751,4.751,0,0,1-4.751-4.75,4.751,4.751,0,0,1,4.751-4.75h32.633a4.75,4.75,0,0,1,4.75,4.75,4.75,4.75,0,0,1-4.75,4.75" fill="#bdffff"/><path d="M-3559.209-219.031a8.736,8.736,0,0,1,8.736,8.736,8.736,8.736,0,0,1-8.736,8.736,8.736,8.736,0,0,1-8.736-8.736,8.736,8.736,0,0,1,8.736-8.736" fill="#ba54ea"/><path d="M-3569.34-232.054a6.018,6.018,0,0,1,6.018,6.018,6.018,6.018,0,0,1-6.018,6.018,6.019,6.019,0,0,1-6.019-6.018A6.019,6.019,0,0,1-3569.34-232.054Z" fill="#ba54ea"/><path d="M-3560.7-241.14a3.36,3.36,0,0,1,3.36,3.36,3.36,3.36,0,0,1-3.36,3.361,3.36,3.36,0,0,1-3.361-3.361A3.36,3.36,0,0,1-3560.7-241.14Z" fill="#ba54ea"/><path d="M-3548.486-228.874a21.133,21.133,0,0,0,2.829,7.582l22.513,36.754-22.512-36.754a21.149,21.149,0,0,1-2.83-7.582m5.233-29.369a4.751,4.751,0,0,1-4.722,4.23,4.788,4.788,0,0,0,.958-.1,4.759,4.759,0,0,0,2.982-2,4.727,4.727,0,0,0,.782-2.136m0-.031,0,.025,0-.025m0-.053,0,.042,0-.042m0-.036,0,.022,0-.022m0-.049,0,.031,0-.031m0-.039v0m0-.045v0m0-.044v0m0-.043v0m0-.048v0m0-.041v0m0-.05v0" fill="#d8d3d0"/><path d="M-3553.117-248.082h-1.311v15.746a30.77,30.77,0,0,0,1.978,11.044l3.9,10.031h3.937l-4.754-7.761a25.474,25.474,0,0,1-3.754-13.315v-15.745" fill="#a3d3d0"/><path d="M-3544.609-211.261h-3.937l11.564,29.708a19.453,19.453,0,0,1,1.063,9.528h3.42a12.962,12.962,0,0,0,8.76-3.331,8.781,8.781,0,0,0-1.282-3.926l-19.588-31.979" fill="#a14abf"/><path d="M-3548.771-248.082h-4.346v15.745a25.474,25.474,0,0,0,3.754,13.315l4.754,7.761,19.588,31.979a8.781,8.781,0,0,1,1.282,3.926,13.279,13.279,0,0,0,2.683-3.375,13.258,13.258,0,0,0,.58-1.217,12.877,12.877,0,0,1,.47,9.268,12.939,12.939,0,0,0-1.31-10.873l-1.828-2.985-22.513-36.754a21.133,21.133,0,0,1-2.829-7.582,21.163,21.163,0,0,1-.285-3.462h0v-15.745" fill="#a3d3d0"/><path d="M-3553.117-254.013h-1.311v5.931h1.311v-5.931" fill="#8eb0ab"/><path d="M-3548.771-254.013h-4.347v5.931h4.347v-5.931" fill="#8eb0ab"/><path d="M-3547.975-263.513h-5.944c1.665,0,3.016,2.128,3.016,4.749a6.78,6.78,0,0,1-.517,2.656,3.377,3.377,0,0,1-1.894,2,1.988,1.988,0,0,1-.608.1h5.947a4.751,4.751,0,0,0,4.722-4.23v-.006l0-.025,0-.011,0-.042,0-.014,0-.022v-.018l0-.031v-.039l0-.027v-.062l0-.035v-.188a4.75,4.75,0,0,0-4.75-4.75" fill="#a3d3d0"/><path d="M-3523.275-165.358q-.4.4-.825.755.428-.358.825-.755m3.233-5.213,0,.007,0-.007m.018-.055-.006.017.006-.017m.017-.052-.009.027.009-.027" fill="#a3d3d0"/><path d="M-3547.975-254.013h-32.632a4.749,4.749,0,0,1-4.751-4.75,4.749,4.749,0,0,1,4.751-4.75h32.632a4.749,4.749,0,0,1,4.751,4.75A4.749,4.749,0,0,1-3547.975-254.013Z" fill="#bdffff"/><path d="M-3596.31-161.588h0m-12.789-11.341a13.248,13.248,0,0,0,1.573,4.638,13.153,13.153,0,0,0,3.965,4.393,13.151,13.151,0,0,1-3.964-4.393,13.25,13.25,0,0,1-1.574-4.638m-.006-.045,0,.018,0-.018m-.006-.045h0" fill="#d8d3d0"/><path d="M-3604.843-175.355a8.716,8.716,0,0,0,1.11,4.938,8.663,8.663,0,0,0,7.649,4.484h58.2a15.148,15.148,0,0,0,1.065-2.358,18.7,18.7,0,0,0,.9-3.734h-60.165a12.962,12.962,0,0,1-8.759-3.33" fill="#a14abf"/><path d="M-3520.03-170.609l-.012.038.012-.038m.014-.042-.008.025.008-.025m.01-.029h0m-88.1-9.268a12.886,12.886,0,0,0-1,6.929h0l.006.045,0,.018,0,.027a13.25,13.25,0,0,0,1.574,4.638,13.151,13.151,0,0,0,3.964,4.393,13.016,13.016,0,0,0,7.251,2.31h63.811a12.977,12.977,0,0,0,8.4-3.016,12.979,12.979,0,0,1-8.4,3.015h-11.591c2.432,0,4.65-1.585,6.207-4.345h-58.2a8.663,8.663,0,0,1-7.649-4.484,8.716,8.716,0,0,1-1.11-4.938,13.291,13.291,0,0,1-2.683-3.375c-.222-.4-.4-.808-.581-1.218" fill="#a3d3d0"/><path d="M-3520.136-170.3a13.692,13.692,0,0,1-.921,2.011,13.773,13.773,0,0,1-.861,1.346,13.8,13.8,0,0,0,.862-1.347,13.627,13.627,0,0,0,.92-2.01m.015-.043-.012.033.012-.033" fill="#d8d3d0"/><path d="M-3520.045-170.564a13.525,13.525,0,0,1-1.012,2.273,13.388,13.388,0,0,1-2.218,2.933,13.2,13.2,0,0,0,1.357-1.587,13.773,13.773,0,0,0,.861-1.346,13.692,13.692,0,0,0,.921-2.011l0-.01.012-.033c.026-.073.052-.146.076-.219" fill="#a3d3d0"/><path d="M-3523.739-175.356a12.962,12.962,0,0,1-8.76,3.331h-3.42a18.7,18.7,0,0,1-.9,3.734,15.148,15.148,0,0,1-1.065,2.358h5.383a8.663,8.663,0,0,0,7.65-4.484,8.721,8.721,0,0,0,1.11-4.939" fill="#8d429d"/><path d="M-3520.476-179.948a13.258,13.258,0,0,1-.58,1.217,13.279,13.279,0,0,1-2.683,3.375,8.721,8.721,0,0,1-1.11,4.939,8.663,8.663,0,0,1-7.65,4.484h-5.383c-1.557,2.76-3.775,4.345-6.207,4.345h11.591a12.979,12.979,0,0,0,8.4-3.015q.428-.358.825-.755a13.388,13.388,0,0,0,2.218-2.933,13.525,13.525,0,0,0,1.012-2.273l0-.007.012-.038.006-.017.008-.025.009-.027v0a12.877,12.877,0,0,0-.47-9.268" fill="#8eb0ab"/><path d="M-3547.975-254.013h-32.633a4.75,4.75,0,0,1-4.75-4.75,4.75,4.75,0,0,1,4.75-4.75h32.633a4.75,4.75,0,0,1,4.75,4.75A4.75,4.75,0,0,1-3547.975-254.013Z" fill="#bdffff"/><path d="M-3586.356-194.729l-.528-.149a1.011,1.011,0,0,1-.334-1.392l3.645-5.953a1.015,1.015,0,0,1,1.393-.334,1.013,1.013,0,0,1,.334,1.392l-3.646,5.953A1.012,1.012,0,0,1-3586.356-194.729Z" fill="#fff"/><path d="M-3579.184-206.438l-.528-.149a1.012,1.012,0,0,1-.335-1.392l5.144-8.4a30.462,30.462,0,0,0,3.886-9.86,1.015,1.015,0,0,1,1.193-.79,1.011,1.011,0,0,1,.79,1.193,32.437,32.437,0,0,1-4.143,10.515l-5.143,8.4A1.012,1.012,0,0,1-3579.184-206.438Z" fill="#fff"/><path d="M-3569.34-256.425h-10.472a1.012,1.012,0,0,1-1.013-1.013,1.011,1.011,0,0,1,1.013-1.012h10.472a1.011,1.011,0,0,1,1.012,1.012A1.012,1.012,0,0,1-3569.34-256.425Z" fill="#fff"/><path d="M-3561.884-256.425h-3.587a1.012,1.012,0,0,1-1.013-1.013,1.011,1.011,0,0,1,1.013-1.012h3.587a1.011,1.011,0,0,1,1.013,1.012A1.012,1.012,0,0,1-3561.884-256.425Z" fill="#fff"/><path d="M-3626.009-267.226a8.11,8.11,0,0,1,8.1-8.1" fill="none" stroke="#fff" stroke-linecap="round" stroke-miterlimit="10" stroke-width="2.025"/><path d="M-3566.06-275.326h7.927" fill="none" stroke="#fff" stroke-linecap="round" stroke-miterlimit="10" stroke-width="2.025"/><path d="M-3591.687-275.326h20.7" fill="none" stroke="#fff" stroke-linecap="round" stroke-miterlimit="10" stroke-width="2.025"/><path d="M-3617.909-275.326h20.7" fill="none" stroke="#fff" stroke-linecap="round" stroke-miterlimit="10" stroke-width="2.025"/><path d="M-3626.009-251.734v-15.492" fill="none" stroke="#fff" stroke-linecap="round" stroke-miterlimit="10" stroke-width="2.025"/><path d="M-3626.009-239.056v-6.685" fill="none" stroke="#fff" stroke-linecap="round" stroke-miterlimit="10" stroke-width="2.025"/><rect width="141.751" height="141.751" rx="16.2" transform="translate(-3804.109 -455.326)" fill="#93cb4f"/><rect width="141.751" height="141.751" rx="16.2" transform="translate(-3804.109 -463.426)" fill="#aee073"/><path d="M-3745.674-434.523l-6.238-3.694c-1.52,2.178-3.017,4.42-4.412,6.785a52.883,52.883,0,0,0-2.422-7.886,89.492,89.492,0,0,0-3.885-8.421l-6.62,2.953a81.788,81.788,0,0,1,2.632,8.065,42.755,42.755,0,0,1,1.334,7.944,39.336,39.336,0,0,1-.279,7.882,57.738,57.738,0,0,1-1.672,7.9l4.26.925-.027.286h1.344l5.579,1.211c.062-.4.114-.806.172-1.211h4.322a29.6,29.6,0,0,1,1.23-11.157,73.712,73.712,0,0,1,4.682-11.581" fill="#67c4e0"/><path d="M-3766.073-417.834l-.011.008q-.3,1.5-.67,3l0-.007q.378-1.5.676-3m20.4-16.689c-1.111,2.283-2.157,4.571-3.055,6.852h0c.9-2.281,1.943-4.569,3.054-6.852" fill="#d8d3d0"/><path d="M-3748.1-435.959c-3.255,7.678-5.348,11.523-10.034,14.405-1.513.931-4.556,1.327-7.939,3.72q-.3,1.5-.676,3a9.08,9.08,0,0,1,7.646-3.457,17.49,17.49,0,0,1,3.633.412,52.017,52.017,0,0,1,3.031-5.088,40.542,40.542,0,0,1,3.71-4.706c.9-2.281,1.944-4.569,3.055-6.852h0l-2.426-1.436" fill="#5ea4b7"/><path d="M-3757.431-435.585c.738,2.527,2.41,1.911,3.279.671l1.269,3.556-2.736,4.09-4.749-1.716S-3757.855-437.035-3757.431-435.585Z" fill="#67c4e0"/><path d="M-3715.461-432.551a30.452,30.452,0,0,0-6.494-3.024l.231-1.226c.42-2.233.868-4.477,1.34-6.69l-3.53-1.059c-.828,2.172-1.618,4.33-2.39,6.513-.164.464-.322.931-.484,1.395a23.766,23.766,0,0,0-2.591-.153c-.036-.593-.08-1.182-.135-1.766q-.21-2.067-.559-4.078c-.238-1.356-.5-2.643-.848-4.037l-4.617.826c.082,1.168.124,2.462.122,3.691s-.048,2.478-.135,3.7c-.066.858-.169,1.7-.288,2.531a22.939,22.939,0,0,0-3.855,1.448,28.859,28.859,0,0,0-7.318,5.075,38.529,38.529,0,0,0-5.427,6.442,54.456,54.456,0,0,0-3.968,6.952c-1.113,2.356-2.063,4.737-2.914,7.13l21.054,4.646c.113-1.819.288-3.614.56-5.353a37.088,37.088,0,0,1,1.15-4.943,17.942,17.942,0,0,1,4.284-7.6,9.834,9.834,0,0,1,3.348-2.169,11.842,11.842,0,0,1,4.465-.8,25.167,25.167,0,0,1,10.669,2.867l4.125-5.961a40.329,40.329,0,0,0-5.795-4.351" fill="#991e2c"/><path d="M-3736.557-414.533q-.3.969-.55,1.988h0q.248-1.017.549-1.987" fill="#d8d3d0"/><path d="M-3724.383-428.086c-6.295,0-13.168,3.485-20.119,14.8l.07.041.01.006.058.034.048.028.014.008q.453.266.917.547a5.461,5.461,0,0,1,2.358,2.6h0s.987-.187,2.672-.343q.6-1.1,1.248-2.176.248-1.017.55-1.988h0a17.942,17.942,0,0,1,4.284-7.6,9.834,9.834,0,0,1,3.348-2.169,11.8,11.8,0,0,1,4.283-.8,30.577,30.577,0,0,1,5.069-2.341,19.347,19.347,0,0,0-4.81-.639" fill="#861f27"/><path d="M-3736.879-435.615a1.581,1.581,0,0,0,1.193-1.485s6.128-1.991,6.2-1.2c.1,1.2.416,1.518,1.337,1.542l-1.1,2.8-7.534.511Z" fill="#991e2c"/><path d="M-3727.8-436.736a1.144,1.144,0,0,0,1.366-.921s4.9-.147,4.714.856.026,1.282.831,1.594l-.333,1.673-6.711-1.236Z" fill="#991e2c"/><path d="M-3705.171-420.366a28.984,28.984,0,0,0-5.213-.721c-.337-.012-.681-.01-1.025-.009a25.929,25.929,0,0,1,6.671-2.159v-5.654a32.236,32.236,0,0,0-10.435.258,30.615,30.615,0,0,0-10.282,4.033,34.675,34.675,0,0,0-8.541,7.6,49.208,49.208,0,0,0-5.877,9.641l12.324,3.8,9.245,4.448a23.617,23.617,0,0,1,2.4-5.662,10.147,10.147,0,0,1,3.585-3.607,10.345,10.345,0,0,1,2.639-1.031,17.25,17.25,0,0,1,3.318-.435,52.772,52.772,0,0,1,7.991.508l1.946-8.117a61.975,61.975,0,0,0-8.749-2.888" fill="#67c4e0"/><path d="M-3697.429-413.278l-.939,3.917.939-3.917h0" fill="#d8d3d0"/><path d="M-3710.341-415.245c-6.3,0-10.756,1.922-14.405,5.5a39.917,39.917,0,0,1,7.27,2.088,15.77,15.77,0,0,1,9.978-4.247,6.827,6.827,0,0,1,3.332.774,6.388,6.388,0,0,1,1.662,1.357c1.317.1,2.7.252,4.136.414h0l.939-3.917a51.486,51.486,0,0,0-12.912-1.967" fill="#5ea4b7"/><path d="M-3708.694-422.221c-1.4.531-1.016,1.088.506,1.319l-.836,3.724-6.827,1.187.165-6.727,7.123-1.385Z" fill="#67c4e0"/><path d="M-3760.792-373.125c-3.492-12.562,10.116-21.321,13.26-23.415,3.561-2.375,1.419-4.063,5.1-6.554,2.707-1.841.586-2.753,1.377-4.732a2.965,2.965,0,0,0,.032-2.2s32.39-6.136,42.62,22.593c9.63,27.04-10.552,51.838-20.708,50.518-6.674-.865-12.267-8.706-17.411-13.454s-14.905-6.464-21.9-17.543a19.7,19.7,0,0,1-2.369-5.213" fill="#ea5670"/><path d="M-3733.784-410.576h0q.273,0,.553,0-.281,0-.553,0" fill="#5ea4b7"/><path d="M-3738.355-410.369c-1.685.156-2.672.343-2.672.343h0s.988-.187,2.672-.343h0" fill="#772023"/><path d="M-3733.79-410.576c-1.806,0-3.363.1-4.565.207h0c1.2-.111,2.759-.207,4.565-.207" fill="#5ea4b7"/><path d="M-3718.318-336.864h0m.564-.024-.079.006.079-.006m.274-.027c-.061.008-.121.014-.182.02.061-.006.121-.012.182-.02m.922-.16-.03.007.03-.007m.139-.033-.119.028.119-.028m.47-.128c-.114.034-.226.066-.34.1.113-.029.226-.061.34-.1m-42.474-30.676c6.9,10.928,16.486,12.746,21.683,17.35-5.2-4.6-14.786-6.422-21.683-17.35m60.1-19.272c8.5,24.319-7.038,46.762-17.591,49.937,10.553-3.172,26.093-25.616,17.591-49.937m-.04-.114.016.046-.016-.046m-.132-.371.006.018-.006-.018" fill="#d8d3d0"/><path d="M-3747.239-396.743c-.093.067-.191.135-.293.2-2.794,1.861-13.852,8.985-13.828,19.365a15.231,15.231,0,0,0,.568,4.05h0a19.7,19.7,0,0,0,2.369,5.213h0c6.9,10.928,16.486,12.746,21.683,17.35.072.064.144.128.214.193,5.144,4.748,10.737,12.589,17.411,13.454a6.3,6.3,0,0,0,.8.051h0c.16,0,.321-.006.484-.018l.079-.006.092-.007c.061-.006.121-.012.182-.02a8.643,8.643,0,0,0,.892-.153l.03-.007.02,0,.119-.028.13-.033c.114-.029.226-.061.34-.1l.039-.011c10.553-3.175,26.093-25.618,17.591-49.937l-.024-.068-.016-.046-.048-.135h0c-.026-.074-.052-.145-.078-.218l-.006-.018a39.717,39.717,0,0,0-1.732-4.066,1.991,1.991,0,0,1-.734.727h0l-.016.008,0,0-.014.007-.005,0-.014.006,0,0-.015.007h0l-.036.015-.007,0-.011,0-.008,0-.01,0-.008,0-.01,0-.009,0-.009,0-.009,0-.009,0-.01,0-.01,0-.017.005-.008,0-.011,0-.008,0-.011,0h-.007l-.011,0-.007,0-.012,0h-.006l-.012,0h-.006l-.045.007h-.129a1.206,1.206,0,0,1-.187-.015c-1.494-.241-2.318-2.528-4.871-4.9a34.468,34.468,0,0,1,2.873,5.335c10.1,23.307-6.058,46.364-15.325,46.364-.115,0-.229,0-.342-.011-6.048-.383-11.529-7.061-16.428-11s-13.768-4.9-20.7-14.395a17.542,17.542,0,0,1-2.431-4.52c-3.87-11.019,7.847-19.642,10.55-21.7a6.523,6.523,0,0,0,1.087-1.023m13.455-13.833h-.006c-1.806,0-3.363.1-4.565.207-1.684.156-2.672.343-2.672.343l.007.018,0,.007.006.015v0a3.026,3.026,0,0,1,.18,1.022h0a2.844,2.844,0,0,1-.021.345,45.766,45.766,0,0,1,7.066-.548,37.047,37.047,0,0,1,15.085,3,8.083,8.083,0,0,1,1.225-1.491,44.509,44.509,0,0,0-15.755-2.914q-.281,0-.553,0" fill="#c74c5e"/><path d="M-3741.027-410.026a2.965,2.965,0,0,1-.032,2.2c-.791,1.979,1.33,2.891-1.377,4.732-3.677,2.491-1.535,4.179-5.1,6.554-3.144,2.094-16.752,10.853-13.26,23.415-9.238-4.453-13.459-24.908-7.16-39.618,2.6-6.073,10.121-8.653,24.567.116a5.461,5.461,0,0,1,2.358,2.6" fill="#ffdc8e"/><path d="M-3744.3-413.174q.453.266.917.547a5.461,5.461,0,0,1,2.358,2.6h0a5.461,5.461,0,0,0-2.358-2.6q-.464-.282-.917-.547m-.062-.036.048.028-.048-.028m-.068-.04.01.006-.01-.006" fill="#772023"/><path d="M-3760.834-373.146l.042.021-.042-.021m-.029-.014.007,0-.007,0" fill="#d8d3d0"/><path d="M-3753.273-417.288a52.746,52.746,0,0,1,6.458,3.368,5.472,5.472,0,0,1,2.358,2.6,2.966,2.966,0,0,1-.032,2.2c-.792,1.978,1.329,2.891-1.377,4.732-3.678,2.491-1.536,4.179-5.1,6.554-3,2-15.5,10.054-13.627,21.69a12.1,12.1,0,0,0,3.727,2.982l.007,0,.022.01.042.021h0a15.231,15.231,0,0,1-.568-4.05h0c-.024-10.38,11.034-17.5,13.828-19.365,3.561-2.375,1.419-4.063,5.1-6.554,1.153-.784,1.43-1.4,1.43-2,0-.557-.24-1.1-.242-1.757h0a2.556,2.556,0,0,1,.189-.975,3.047,3.047,0,0,0,.228-1.136,3.026,3.026,0,0,0-.18-1.022v0l-.006-.015,0-.007-.007-.018h0a5.461,5.461,0,0,0-2.358-2.6q-.464-.282-.917-.547l-.014-.008-.048-.028-.058-.034-.01-.006a43.171,43.171,0,0,0-8.841-4.038" fill="#d8b776"/><path d="M-3719.2-403.57c-1.367-4.009,9.567-10.593,15.037-7.562,6.507,3.6,6.221,20.834,2.509,20.235-2.245-.362-2.977-5.344-10.335-8.276-3.309-1.318-6.42-2.076-7.211-4.4" fill="#ffdc8e"/><path d="M-3712.053-399.2l.061.024-.061-.024m-.062-.024.056.021-.056-.021m-.041-.017.02.008-.02-.008" fill="#c74d5f"/><path d="M-3699.136-395.729a9.612,9.612,0,0,1-1.087,3.994h0a9.612,9.612,0,0,0,1.087-3.994m0-.039,0,.03,0-.03m0-.042,0,.019,0-.019m0-.037v0" fill="#d8d4d2"/><path d="M-3700.223-391.735h0" fill="#c74d5f"/><path d="M-3701.451-390.882h0m.019,0h0m.019,0h0m.019,0h0m.018,0h0m.019,0h0m.016,0h0m.052-.008h0m.018,0h0m.019,0-.007,0,.007,0m.018,0h0m.019,0-.008,0,.008,0m.019,0-.008,0,.008,0m.027-.008-.01,0,.01,0m.019,0-.009,0,.009,0m.018-.006-.009,0,.009,0m.019-.006-.01,0,.01,0m.018-.006-.01,0,.01,0m.019-.008-.011,0,.011,0m.043-.017-.036.015.036-.015m.018-.008-.015.007.015-.007m.018-.008-.014.006.014-.006m.019-.009-.014.007.014-.007m.019-.009-.015.007.015-.007m.737-.729a1.983,1.983,0,0,1-.734.727,1.991,1.991,0,0,0,.734-.727h0" fill="#ab4551"/><path d="M-3702.085-409.262c3.428,5.693,3.048,15.457-.026,15.457-.047,0-.095,0-.143-.007-2.466-.235-3.467-4.9-11.619-7.311-1.7-.5-3.33-.9-4.7-1.388,1.239,1.5,3.743,2.218,6.42,3.273l.02.008.021.009.056.021.006,0,.061.024h0c7.358,2.932,8.09,7.914,10.335,8.276a1.2,1.2,0,0,0,.187.015h.128l.046-.007h.006l.012,0h.006l.012,0,.007,0,.011,0h.007l.011,0,.008,0,.011,0,.008,0,.017-.005.01,0,.01,0,.009,0,.009,0,.009,0,.009,0,.01,0,.008,0,.01,0,.008,0,.011,0,.007,0,.036-.015h0l.015-.007,0,0,.014-.006.005,0,.014-.007,0,0,.015-.007,0,0a1.983,1.983,0,0,0,.734-.727h0a9.612,9.612,0,0,0,1.087-3.994v-.009l0-.03,0-.023,0-.019,0-.028v-.009c.389-4.219-.447-10.1-2.96-13.415" fill="#d8b877"/><path d="M-3766.525-447.571c-1.828.815-3.048,2.062-2.726,2.785s2.066.647,3.894-.169,3.048-2.061,2.726-2.784S-3764.7-448.387-3766.525-447.571Z" fill="#5183c9"/><path d="M-3748.063-437.6c-1.723-1.02-3.446-1.3-3.849-.614s.666,2.06,2.388,3.08,3.446,1.295,3.849.614S-3746.341-436.583-3748.063-437.6Z" fill="#5183c9"/><path d="M-3733.393-447.175c-1.274.228-2.234.821-2.144,1.326s1.2.727,2.472.5,2.235-.822,2.144-1.326S-3732.117-447.4-3733.393-447.175Z" fill="#822428"/><ellipse cx="1.117" cy="2.827" rx="1.117" ry="2.827" transform="translate(-3705.855 -428.909)" fill="#5183c9"/><path d="M-3695.79-413.034c.536-2.241.254-4.231-.632-4.443s-2.04,1.432-2.577,3.674-.255,4.231.631,4.442S-3696.328-410.792-3695.79-413.034Z" fill="#5183c9"/><path d="M-3737.08-427.985a1.013,1.013,0,0,1-.912-.57,1.013,1.013,0,0,1,.468-1.353,17.773,17.773,0,0,1,3.045-1.145,1.017,1.017,0,0,1,1.246.705,1.014,1.014,0,0,1-.705,1.247,15.679,15.679,0,0,0-2.7,1.014Z" fill="#fff"/><path d="M-3747.414-418.542a1.014,1.014,0,0,1-.568-.175,1.013,1.013,0,0,1-.268-1.407,33.243,33.243,0,0,1,4.709-5.6,25.373,25.373,0,0,1,3.1-2.5,1.01,1.01,0,0,1,1.407.266,1.012,1.012,0,0,1-.266,1.407,23.259,23.259,0,0,0-2.849,2.3,31.339,31.339,0,0,0-4.423,5.264A1.015,1.015,0,0,1-3747.414-418.542Z" fill="#fff"/><path d="M-3729.251-412.218a1.009,1.009,0,0,1-.639-.228,1.012,1.012,0,0,1-.144-1.425,29.231,29.231,0,0,1,7.238-6.439,25.279,25.279,0,0,1,2.64-1.429,1.015,1.015,0,0,1,1.346.489,1.012,1.012,0,0,1-.49,1.346,23.478,23.478,0,0,0-2.429,1.315,27.217,27.217,0,0,0-6.737,6A1.01,1.01,0,0,1-3729.251-412.218Z" fill="#fff"/><path d="M-3717.165-420.838a1.012,1.012,0,0,1-.959-.688,1.013,1.013,0,0,1,.635-1.284,25.4,25.4,0,0,1,3.282-.872c.272-.053.548-.1.827-.147a1.013,1.013,0,0,1,1.159.84,1.012,1.012,0,0,1-.84,1.159q-.384.061-.758.135a23.448,23.448,0,0,0-3.022.8Z" fill="#fff"/><path d="M-3763.275-406.91l-.311-.05a1.011,1.011,0,0,1-.652-1.274q.413-1.281.941-2.517a1.011,1.011,0,0,1,1.329-.532,1.012,1.012,0,0,1,.532,1.329c-.328.766-.618,1.549-.876,2.343A1.011,1.011,0,0,1-3763.275-406.91Z" fill="#fff"/><path d="M-3764.463-390.831a1.013,1.013,0,0,1-1-.869,38.887,38.887,0,0,1,.311-13,1.006,1.006,0,0,1,1.192-.793,1.012,1.012,0,0,1,.793,1.192,36.833,36.833,0,0,0-.29,12.314,1.013,1.013,0,0,1-.86,1.146Z" fill="#fff"/><path d="M-3743.648-390.83a1.012,1.012,0,0,1-.82-.416,1.014,1.014,0,0,1,.222-1.415,10.307,10.307,0,0,0,3.976-5.384,1.014,1.014,0,0,1,1.295-.612,1.011,1.011,0,0,1,.612,1.294,12.3,12.3,0,0,1-4.69,6.339A1.009,1.009,0,0,1-3743.648-390.83Z" fill="#fff"/><path d="M-3746.569-362.912a1.014,1.014,0,0,1-.6-.2,27.069,27.069,0,0,1-6.969-7.5,14.729,14.729,0,0,1-1.773-3.866c-1.475-5.308,1.462-10.736,8.733-16.131a1.01,1.01,0,0,1,1.416.209,1.012,1.012,0,0,1-.21,1.416c-6.529,4.846-9.216,9.545-7.987,13.964a12.718,12.718,0,0,0,1.533,3.328,25.108,25.108,0,0,0,6.465,6.957,1.013,1.013,0,0,1,.209,1.417A1.014,1.014,0,0,1-3746.569-362.912Z" fill="#fff"/><path d="M-3710.453-404.081a1.014,1.014,0,0,1-.928-.6,1.013,1.013,0,0,1,.518-1.335,8.8,8.8,0,0,1,3.364-.823,1.012,1.012,0,0,1,1.013,1.012,1.012,1.012,0,0,1-1.013,1.013,6.708,6.708,0,0,0-2.546.651Z" fill="#fff"/><path d="M-3796.009-447.226a8.11,8.11,0,0,1,8.1-8.1" fill="none" stroke="#fff" stroke-linecap="round" stroke-miterlimit="10" stroke-width="2.025"/><path d="M-3736.06-455.326h7.927" fill="none" stroke="#fff" stroke-linecap="round" stroke-miterlimit="10" stroke-width="2.025"/><path d="M-3761.687-455.326h20.7" fill="none" stroke="#fff" stroke-linecap="round" stroke-miterlimit="10" stroke-width="2.025"/><path d="M-3787.909-455.326h20.7" fill="none" stroke="#fff" stroke-linecap="round" stroke-miterlimit="10" stroke-width="2.025"/><path d="M-3796.009-431.734v-15.492" fill="none" stroke="#fff" stroke-linecap="round" stroke-miterlimit="10" stroke-width="2.025"/><path d="M-3796.009-419.056v-6.685" fill="none" stroke="#fff" stroke-linecap="round" stroke-miterlimit="10" stroke-width="2.025"/><rect width="141.751" height="141.751" rx="16.2" transform="translate(-3634.109 -455.326)" fill="#68c9eb"/><rect width="141.751" height="141.751" rx="16.2" transform="translate(-3634.109 -463.426)" fill="#91e3ff"/><path d="M-3581.563-434.359v83.618h67.69Z" fill="#b6f0ff"/><path d="M-3580.288-430.76a2.022,2.022,0,0,1-1.575-.75l-1.275-1.574a2.027,2.027,0,0,1,.3-2.849,2.024,2.024,0,0,1,2.849.3l1.274,1.574a2.026,2.026,0,0,1-.3,2.848A2.016,2.016,0,0,1-3580.288-430.76Z" fill="#fff0a6"/><path d="M-3520.157-356.48a2.024,2.024,0,0,1-1.576-.75l-2.505-3.1a2.026,2.026,0,0,1,.3-2.849,2.022,2.022,0,0,1,2.848.3l2.506,3.1a2.026,2.026,0,0,1-.3,2.848A2.015,2.015,0,0,1-3520.157-356.48Zm-7.517-9.285a2.02,2.02,0,0,1-1.575-.752l-2.5-3.1a2.023,2.023,0,0,1,.3-2.847,2.022,2.022,0,0,1,2.847.3l2.5,3.1a2.023,2.023,0,0,1-.3,2.848A2.014,2.014,0,0,1-3527.674-365.765Zm-7.516-9.285a2.023,2.023,0,0,1-1.575-.75l-2.505-3.1a2.027,2.027,0,0,1,.3-2.849,2.025,2.025,0,0,1,2.849.3l2.505,3.1a2.026,2.026,0,0,1-.3,2.848A2.017,2.017,0,0,1-3535.19-375.05Zm-7.516-9.285a2.024,2.024,0,0,1-1.576-.75l-2.505-3.1a2.027,2.027,0,0,1,.3-2.849,2.026,2.026,0,0,1,2.849.3l2.506,3.1a2.027,2.027,0,0,1-.3,2.849A2.022,2.022,0,0,1-3542.706-384.335Zm-7.516-9.285a2.02,2.02,0,0,1-1.575-.751l-2.506-3.1a2.026,2.026,0,0,1,.3-2.848,2.023,2.023,0,0,1,2.848.3l2.506,3.1a2.027,2.027,0,0,1-.3,2.849A2.013,2.013,0,0,1-3550.222-393.62Zm-7.517-9.285a2.022,2.022,0,0,1-1.575-.75l-2.506-3.1a2.027,2.027,0,0,1,.3-2.849,2.024,2.024,0,0,1,2.849.3l2.5,3.1a2.026,2.026,0,0,1-.3,2.848A2.018,2.018,0,0,1-3557.739-402.9Zm-7.517-9.284a2.021,2.021,0,0,1-1.575-.752l-2.5-3.1a2.023,2.023,0,0,1,.3-2.847,2.023,2.023,0,0,1,2.848.3l2.505,3.1a2.025,2.025,0,0,1-.3,2.848A2.019,2.019,0,0,1-3565.256-412.189Zm-7.515-9.286a2.018,2.018,0,0,1-1.575-.751l-2.506-3.094a2.027,2.027,0,0,1,.3-2.849,2.023,2.023,0,0,1,2.848.3l2.506,3.094a2.027,2.027,0,0,1-.3,2.849A2.013,2.013,0,0,1-3572.771-421.475Z" fill="#fff0a6"/><path d="M-3513.873-348.716a2.023,2.023,0,0,1-1.575-.75l-1.274-1.574a2.027,2.027,0,0,1,.3-2.849,2.025,2.025,0,0,1,2.849.3l1.274,1.574a2.026,2.026,0,0,1-.3,2.848A2.016,2.016,0,0,1-3513.873-348.716Z" fill="#fff0a6"/><path d="M-3513.874-346.691h-67.689a4.051,4.051,0,0,1-4.051-4.05v-83.618a4.051,4.051,0,0,1,4.051-4.05,4.051,4.051,0,0,1,4.05,4.05v79.568h63.639a4.05,4.05,0,0,1,4.05,4.05A4.05,4.05,0,0,1-3513.874-346.691Z" fill="#1b75bc"/><path d="M-3565.416-348.716a2.025,2.025,0,0,1-2.025-2.025v-14.123h-14.122a2.025,2.025,0,0,1-2.026-2.025,2.026,2.026,0,0,1,2.026-2.025h16.147a2.025,2.025,0,0,1,2.025,2.025v16.148A2.024,2.024,0,0,1-3565.416-348.716Z" fill="#1b75bc"/><path d="M-3539.275-409.367a2.024,2.024,0,0,1-1.851-1.2l-4.913-11.049a2.023,2.023,0,0,1,1.028-2.673,2.023,2.023,0,0,1,2.672,1.027l4.913,11.05a2.024,2.024,0,0,1-1.028,2.673A2.015,2.015,0,0,1-3539.275-409.367Z" fill="#1b75bc"/><path d="M-3539.274-409.368l-.371-.034a2.026,2.026,0,0,1-1.623-2.36l3.537-19.092a2.025,2.025,0,0,1,1.991-1.656h23.891a2.025,2.025,0,0,1,2.025,2.025,2.024,2.024,0,0,1-2.025,2.025h-22.207l-3.229,17.435A2.027,2.027,0,0,1-3539.274-409.368Z" fill="#1b75bc"/><path d="M-3527.126-409.368a2.017,2.017,0,0,1-1.432-.594,2.024,2.024,0,0,1,0-2.863l9.7-9.7a2.024,2.024,0,0,1,2.863,0,2.024,2.024,0,0,1,0,2.863l-9.7,9.7A2.015,2.015,0,0,1-3527.126-409.368Z" fill="#dd7df4"/><path d="M-3517.271-409.529a2.015,2.015,0,0,1-1.384-.547l-10.011-9.382a2.023,2.023,0,0,1-.093-2.861,2.02,2.02,0,0,1,2.862-.093l10.01,9.381a2.024,2.024,0,0,1,.093,2.862A2.014,2.014,0,0,1-3517.271-409.529Z" fill="#dd7df4"/><g clip-path="url(#b)"><rect width="22.221" height="91.718" rx="2.025" transform="translate(-3614.618 -438.409)" fill="#726658"/><path d="M-3592.4-430.654h-11.11a1.68,1.68,0,0,1-1.68-1.68,1.68,1.68,0,0,1,1.68-1.68h11.11a1.68,1.68,0,0,1,1.68,1.68A1.68,1.68,0,0,1-3592.4-430.654Z" fill="#af9c8b"/><path d="M-3592.4-422.7h-5.536a1.681,1.681,0,0,1-1.68-1.68,1.68,1.68,0,0,1,1.68-1.68h5.536a1.68,1.68,0,0,1,1.68,1.68A1.68,1.68,0,0,1-3592.4-422.7Z" fill="#af9c8b"/><path d="M-3592.4-414.74h-5.536a1.681,1.681,0,0,1-1.68-1.68,1.68,1.68,0,0,1,1.68-1.68h5.536a1.68,1.68,0,0,1,1.68,1.68A1.68,1.68,0,0,1-3592.4-414.74Z" fill="#af9c8b"/><path d="M-3592.4-406.784h-5.536a1.68,1.68,0,0,1-1.68-1.68,1.681,1.681,0,0,1,1.68-1.68h5.536a1.68,1.68,0,0,1,1.68,1.68A1.68,1.68,0,0,1-3592.4-406.784Z" fill="#af9c8b"/><path d="M-3592.4-398.827h-5.536a1.681,1.681,0,0,1-1.68-1.68,1.681,1.681,0,0,1,1.68-1.68h5.536a1.68,1.68,0,0,1,1.68,1.68A1.68,1.68,0,0,1-3592.4-398.827Z" fill="#af9c8b"/><path d="M-3592.4-390.87h-11.11a1.68,1.68,0,0,1-1.68-1.68,1.68,1.68,0,0,1,1.68-1.68h11.11a1.68,1.68,0,0,1,1.68,1.68A1.68,1.68,0,0,1-3592.4-390.87Z" fill="#af9c8b"/><path d="M-3592.4-382.914h-5.536a1.68,1.68,0,0,1-1.68-1.68,1.681,1.681,0,0,1,1.68-1.68h5.536a1.68,1.68,0,0,1,1.68,1.68A1.68,1.68,0,0,1-3592.4-382.914Z" fill="#af9c8b"/><path d="M-3592.4-374.957h-5.536a1.68,1.68,0,0,1-1.68-1.68,1.681,1.681,0,0,1,1.68-1.68h5.536a1.68,1.68,0,0,1,1.68,1.68A1.68,1.68,0,0,1-3592.4-374.957Z" fill="#af9c8b"/><path d="M-3592.4-367h-5.536a1.681,1.681,0,0,1-1.68-1.68,1.68,1.68,0,0,1,1.68-1.68h5.536a1.68,1.68,0,0,1,1.68,1.68A1.68,1.68,0,0,1-3592.4-367Z" fill="#af9c8b"/><path d="M-3592.4-359.043h-5.536a1.68,1.68,0,0,1-1.68-1.68,1.68,1.68,0,0,1,1.68-1.679h5.536a1.68,1.68,0,0,1,1.68,1.679A1.68,1.68,0,0,1-3592.4-359.043Z" fill="#af9c8b"/><path d="M-3592.4-351.086h-11.11a1.68,1.68,0,0,1-1.68-1.68,1.68,1.68,0,0,1,1.68-1.68h11.11a1.68,1.68,0,0,1,1.68,1.68A1.68,1.68,0,0,1-3592.4-351.086Z" fill="#af9c8b"/></g><path d="M-3608.543-419.927a1.011,1.011,0,0,1-1.013-1.012v-11.4a1.012,1.012,0,0,1,1.013-1.012,1.012,1.012,0,0,1,1.012,1.012v11.4A1.011,1.011,0,0,1-3608.543-419.927Z" fill="#fff"/><path d="M-3608.543-410.381a1.012,1.012,0,0,1-1.013-1.012v-4.851a1.012,1.012,0,0,1,1.013-1.013,1.012,1.012,0,0,1,1.012,1.013v4.851A1.012,1.012,0,0,1-3608.543-410.381Z" fill="#fff"/><path d="M-3626.009-447.226a8.11,8.11,0,0,1,8.1-8.1" fill="none" stroke="#fff" stroke-linecap="round" stroke-miterlimit="10" stroke-width="2.025"/><path d="M-3566.06-455.326h7.927" fill="none" stroke="#fff" stroke-linecap="round" stroke-miterlimit="10" stroke-width="2.025"/><path d="M-3591.687-455.326h20.7" fill="none" stroke="#fff" stroke-linecap="round" stroke-miterlimit="10" stroke-width="2.025"/><path d="M-3617.909-455.326h20.7" fill="none" stroke="#fff" stroke-linecap="round" stroke-miterlimit="10" stroke-width="2.025"/><path d="M-3626.009-431.734v-15.492" fill="none" stroke="#fff" stroke-linecap="round" stroke-miterlimit="10" stroke-width="2.025"/><path d="M-3626.009-419.056v-6.685" fill="none" stroke="#fff" stroke-linecap="round" stroke-miterlimit="10" stroke-width="2.025"/><circle cx="25.333" cy="25.333" r="25.333" transform="translate(-3848.233 -232.784)" fill="#ffcb64"/><circle cx="20.489" cy="20.489" r="20.489" transform="translate(-3838.544 -395.539)" fill="#91e3ff"/><circle cx="18.483" cy="18.483" r="18.483" transform="translate(-3485.2 -384.249)" fill="#aee073"/><circle cx="22.769" cy="22.769" r="22.769" transform="translate(-3506.968 -221.486)" fill="#ed93b3"/><path d="M-3842.233-207.45a19.355,19.355,0,0,1,19.333-19.334" fill="none" stroke="#fff" stroke-linecap="round" stroke-miterlimit="10" stroke-width="2"/><path d="M-3832.544-375.05a14.5,14.5,0,0,1,14.488-14.489" fill="none" stroke="#fff" stroke-linecap="round" stroke-miterlimit="10" stroke-width="2"/><path d="M-3479.2-365.765a12.5,12.5,0,0,1,12.483-12.484" fill="none" stroke="#fff" stroke-linecap="round" stroke-miterlimit="10" stroke-width="2"/><path d="M-3500.968-198.717a16.789,16.789,0,0,1,16.769-16.769" fill="none" stroke="#fff" stroke-linecap="round" stroke-miterlimit="10" stroke-width="2"/></g></g></svg>