<svg xmlns="http://www.w3.org/2000/svg" xmlns:xlink="http://www.w3.org/1999/xlink" width="400" height="360" viewBox="0 0 400 360"><defs><clipPath id="a"><rect width="400" height="360" transform="translate(-3848.233 -18.5)" fill="none"/></clipPath><clipPath id="b"><path d="M-3741.476,37.928a25.863,25.863,0,0,1-25.863,25.863A25.863,25.863,0,0,1-3793.2,37.928a25.863,25.863,0,0,1,25.863-25.864A25.863,25.863,0,0,1-3741.476,37.928Z" fill="none"/></clipPath><clipPath id="c"><circle cx="25.863" cy="25.863" r="25.863" transform="translate(-3724.991 12.064)" fill="none"/></clipPath><clipPath id="d"><circle cx="25.863" cy="25.863" r="25.863" transform="translate(-3760.234 75.159)" fill="none"/></clipPath></defs><g transform="translate(3848.233 18.5)"><g clip-path="url(#a)"><path d="M-3848.234,170.544c0,66,10.2,170.956,161.516,170.956,110.457,0,238.484-28.184,238.484-162.184,0-129.426-55.317-197.816-227.169-197.816C-3792.734-18.5-3848.234,71.132-3848.234,170.544Z" fill="#aeefff"/><path d="M-3842.828,161.5c0-96.724,48.638-175.135,156.11-175.135s233.079,61.076,233.079,157.8-87.123,192.469-194.595,192.469S-3842.828,258.224-3842.828,161.5Z" fill="#e0e8f3"/><rect width="141.751" height="141.751" rx="16.2" transform="translate(-3804.109 184.674)" fill="#53db96"/><rect width="141.751" height="141.751" rx="16.2" transform="translate(-3804.109 176.574)" fill="#78efb3"/><path d="M-3729.108,298.232c-2,0-3.614-.768-3.614-1.714v-15.2c0-.946,1.619-1.714,3.614-1.714s3.614.768,3.614,1.714v15.2C-3725.494,297.464-3727.112,298.232-3729.108,298.232Z" fill="#3f3f3f"/><path d="M-3730.167,279.7c-1.469.217-2.555.844-2.555,1.612v15.2c0,.768,1.086,1.394,2.555,1.612,1.468-.218,2.554-.844,2.554-1.612v-15.2C-3727.613,280.549-3728.7,279.922-3730.167,279.7Z" fill="#565656"/><line x2="56.785" y2="77.166" transform="translate(-3757.34 194.714)" stroke-width="4.05" stroke="#e6e7e8" stroke-linecap="round" stroke-linejoin="round" fill="none"/><path d="M-3700.555,271.88a47.92,47.92,0,0,1-35.186,8.978,48.132,48.132,0,0,1-40.81-54.075,47.921,47.921,0,0,1,19.211-32.069" fill="none" stroke="#6d6d6d" stroke-linecap="round" stroke-linejoin="round" stroke-width="6.075"/><circle cx="40.535" cy="40.535" r="40.535" transform="translate(-3769.644 192.88)" fill="#1193bc"/><path d="M-3729.108,192.88a40.536,40.536,0,0,0-40.536,40.535,40.3,40.3,0,0,0,8.116,24.26,40.35,40.35,0,0,0,26.24,9.67,40.536,40.536,0,0,0,40.536-40.535,40.3,40.3,0,0,0-8.116-24.259A40.347,40.347,0,0,0-3729.108,192.88Z" fill="#2eb3e8"/><path d="M-3748,302.02c-2.008,0-2.943-3.066-1.375-4.577,3.644-3.511,11.351-5.932,20.269-5.932s16.624,2.421,20.268,5.932c1.569,1.511.633,4.577-1.374,4.577Z" fill="#d81d52"/><path d="M-3749.377,297.443a2.761,2.761,0,0,0-.7,2.572h37.171c1.97,0,2.892-2.942,1.447-4.481-4.122-2.441-10.472-4.023-17.646-4.023C-3738.026,291.511-3745.733,293.932-3749.377,297.443Z" fill="#ef296b"/><path d="M-3690.439,221.244l.068.213C-3690.393,221.386-3690.416,221.315-3690.439,221.244Z" fill="#9ad14b"/><path d="M-3733.5,220.987l-.635-8.1a2.987,2.987,0,0,1,.064-.889l1.379-6.13a3,3,0,0,0,.073-.627l.039-4.087a40.52,40.52,0,0,0-37.062,40.36,40.492,40.492,0,0,0,1.334,10.155l2.46-7.848a12.131,12.131,0,0,1,2.273-4.16l2.346-2.807a2.988,2.988,0,0,1,3.486-.822l2.972,1.3a2.986,2.986,0,0,0,2.544-.074l6.125-3.105a2.986,2.986,0,0,1,2.842.077l5.589,3.221a2.981,2.981,0,0,1,1.171,1.234l3.042,5.984a2.986,2.986,0,0,0,2.356,1.618l3.758.388a2.987,2.987,0,0,0,2.561-4.932l-4.894-5.625a2.986,2.986,0,0,1-.656-1.288l-3.1-13.4A3.119,3.119,0,0,1-3733.5,220.987Z" fill="#a4dd40"/><path d="M-3723.675,251.67l5.648,2.667a2.978,2.978,0,0,1,.955.714l2.017,2.263a2.99,2.99,0,0,0,1.933.986l4.213.421a2.991,2.991,0,0,0,.72-.015l2.851-.408-.352-.924a2.986,2.986,0,0,0-2.111-1.845l-3.391-.794a2.957,2.957,0,0,1-.849-.343l-5.029-3a2.983,2.983,0,0,0-1.154-.4l-4.426-.561-1.025,1.234Z" fill="#a4dd40"/><path d="M-3715.886,246.117l2.312-1.919a2.407,2.407,0,0,0,.766-1.149l1.34-4.379a2.4,2.4,0,0,1,.567-.964l1.714-1.785a2.409,2.409,0,0,1,1.452-.724h.013a2.409,2.409,0,0,1,2.678,2.1l.131,1.073a2.411,2.411,0,0,0,.835,1.548l.6.51a2.412,2.412,0,0,1,.821,1.449l.737,4.486.622,1.732-1.284.789a2.4,2.4,0,0,1-1.262.357h-5.625a2.4,2.4,0,0,1-1.141-.287l-5.279-2.837Z" fill="#a4dd40"/><path d="M-3701.55,255.2l2.31-4.685a2.985,2.985,0,0,1,1-1.149l2.009-1.367a2.989,2.989,0,0,0,1.306-2.47h0a2.989,2.989,0,0,1,1.095-2.312l1.335-1.092.573-1.142.325,1.233a2.993,2.993,0,0,1-.11,1.856l-.64,1.623a2.99,2.99,0,0,0-.2,1.356l.061.695a2.992,2.992,0,0,1-.987,2.49l-2.076,1.853a2.969,2.969,0,0,0-.482.549l-1.393,2.049a2.992,2.992,0,0,1-.873.845l-2.26,1.431Z" fill="#a4dd40"/><path d="M-3702.765,232.273l3.368,1.281a2.909,2.909,0,0,1,.479.233l1.025.617a2.979,2.979,0,0,1,1.218,1.413l.624,1.5,1.146.573.918-.917-.918-2.064,1.6-.917,1.962-1.72h-.815l-1.972.622-1.582-.726-.573-1.845-.7-1.834-.9.8.835,2.522-3.128.344-1.375-.974-1.211,1.089Z" fill="#a4dd40"/><path d="M-3693.574,226.778l.762.07.946.982,1.015.388c-.254-.733-.5-1.469-.8-2.182l-.436-.976c-.205-.46-.433-.907-.654-1.359-.072.131-1.59,1.259-1.59,1.259l-.548,1.334.373,1.281Z" fill="#a4dd40"/><path d="M-3697.98,267.465a40.493,40.493,0,0,0,6.592-11.183c-.239.186-2.611,1.23-2.611,1.23l-2.3,3.1a4.05,4.05,0,0,0-.795,2.264l-.1,2.7Z" fill="#a4dd40"/><path d="M-3724.777,297.586a42.815,42.815,0,0,0-12.631.857" fill="none" stroke="#fff" stroke-linecap="round" stroke-linejoin="round" stroke-width="2.025"/><path d="M-3739.186,200.5a34.472,34.472,0,0,1,10.078-1.546" fill="none" stroke="#fff" stroke-linecap="round" stroke-linejoin="round" stroke-width="2.025"/><path d="M-3760.178,218.515A34.93,34.93,0,0,1-3744.8,202.8" fill="none" stroke="#fff" stroke-linecap="round" stroke-linejoin="round" stroke-width="2.025"/><path d="M-3763.569,233.415a34.6,34.6,0,0,1,1.109-8.688" fill="none" stroke="#fff" stroke-linecap="round" stroke-linejoin="round" stroke-width="2.025"/><path d="M-3796.009,192.774a8.11,8.11,0,0,1,8.1-8.1" fill="none" stroke="#fff" stroke-linecap="round" stroke-miterlimit="10" stroke-width="2.025"/><path d="M-3736.06,184.674h7.927" fill="none" stroke="#fff" stroke-linecap="round" stroke-miterlimit="10" stroke-width="2.025"/><path d="M-3761.687,184.674h20.7" fill="none" stroke="#fff" stroke-linecap="round" stroke-miterlimit="10" stroke-width="2.025"/><path d="M-3787.909,184.674h20.7" fill="none" stroke="#fff" stroke-linecap="round" stroke-miterlimit="10" stroke-width="2.025"/><path d="M-3796.009,208.266V192.774" fill="none" stroke="#fff" stroke-linecap="round" stroke-miterlimit="10" stroke-width="2.025"/><path d="M-3796.009,220.944v-6.685" fill="none" stroke="#fff" stroke-linecap="round" stroke-miterlimit="10" stroke-width="2.025"/><rect width="141.751" height="141.751" rx="16.2" transform="translate(-3634.109 184.674)" fill="#ebda44"/><rect width="141.751" height="141.751" rx="16.2" transform="translate(-3634.109 176.574)" fill="#fff069"/><line y1="92.823" transform="translate(-3564.041 196.93)" stroke-width="8.1" stroke="#9baabc" stroke-linecap="round" stroke-linejoin="round" fill="none"/><path d="M-3563.352,290.833c-15.782,0-28.575,3.877-28.575,8.66v2.685a2.025,2.025,0,0,0,2.025,2.025h53.1a2.026,2.026,0,0,0,2.025-2.025v-2.685C-3534.776,294.71-3547.57,290.833-3563.352,290.833Z" fill="#726658"/><line x1="10.664" y2="47.456" transform="translate(-3612.471 206.898)" stroke-width="4.05" stroke="#726658" stroke-linecap="round" stroke-linejoin="round" fill="none"/><line x2="10.711" y2="47.893" transform="translate(-3601.752 206.898)" stroke-width="4.05" stroke="#726658" stroke-linecap="round" stroke-linejoin="round" fill="none"/><path d="M-3614.834,253.712l26.8.01a2.152,2.152,0,0,1,2.155,2.432,15.747,15.747,0,0,1-15.561,13.306,15.748,15.748,0,0,1-15.551-13.319A2.151,2.151,0,0,1-3614.834,253.712Z" fill="#d38e2a"/><line x1="11.11" y2="47.101" transform="translate(-3535.999 216.252)" stroke-width="4.05" stroke="#726658" stroke-linecap="round" stroke-linejoin="round" fill="none"/><line x2="10.129" y2="47.602" transform="translate(-3524.834 216.253)" stroke-width="4.05" stroke="#726658" stroke-linecap="round" stroke-linejoin="round" fill="none"/><path d="M-3538.411,262.936l26.8.271a2.152,2.152,0,0,1,2.13,2.452,15.749,15.749,0,0,1-15.69,13.155,15.747,15.747,0,0,1-15.421-13.47A2.151,2.151,0,0,1-3538.411,262.936Z" fill="#d38e2a"/><path d="M-3538.667,262.934l23.648.239a1.9,1.9,0,0,1,1.879,2.163,13.894,13.894,0,0,1-13.844,11.607,13.893,13.893,0,0,1-13.606-11.885A1.9,1.9,0,0,1-3538.667,262.934Z" fill="#dba442"/><path d="M-3614.853,253.653l23.648.239a1.9,1.9,0,0,1,1.879,2.163,13.894,13.894,0,0,1-13.844,11.607,13.892,13.892,0,0,1-13.606-11.885A1.9,1.9,0,0,1-3614.853,253.653Z" fill="#dba442"/><line x2="96.304" y2="11.712" transform="translate(-3612.16 205.633)" stroke-width="8.1" stroke="#9baabc" stroke-linecap="round" stroke-linejoin="round" fill="none"/><circle cx="20.537" cy="20.537" r="20.537" transform="translate(-3584.627 247.447)" fill="#edce4c"/><circle cx="20.537" cy="20.537" r="20.537" transform="translate(-3584.627 247.447)" fill="#e5ba41"/><path d="M-3564.09,247.447a20.537,20.537,0,0,0-20.537,20.537,20.435,20.435,0,0,0,5.274,13.706,20.414,20.414,0,0,0,12.093,3.964,20.537,20.537,0,0,0,20.537-20.537A20.436,20.436,0,0,0-3552,251.411,20.419,20.419,0,0,0-3564.09,247.447Z" fill="#edce4c"/><circle cx="14.52" cy="14.52" r="14.52" transform="translate(-3578.609 253.465)" fill="#dba442"/><text transform="translate(-3574.929 272.652)" fill="#edce4c" font-size="16.275" font-family="Nunito-Black, Nunito" font-weight="800"><tspan x="0" y="0">Rp</tspan></text><circle cx="6.997" cy="6.997" r="6.997" transform="translate(-3571.005 204.492)" fill="#b9d7ef"/><line x2="3.28" y2="0.001" transform="translate(-3597.212 259.794)" stroke-width="2.025" stroke="#fff" stroke-linecap="round" stroke-linejoin="round" fill="none"/><path d="M-3601.437,263.384a9.724,9.724,0,0,1-7.5-3.6l8.335,0" fill="none" stroke="#fff" stroke-linecap="round" stroke-linejoin="round" stroke-width="2.025"/><line x2="2.505" y2="0.033" transform="translate(-3520.037 269.19)" stroke-width="2.025" stroke="#fff" stroke-linecap="round" stroke-linejoin="round" fill="none"/><path d="M-3525.108,272.739a9.721,9.721,0,0,1-7.467-3.668l9.085.091" fill="none" stroke="#fff" stroke-linecap="round" stroke-linejoin="round" stroke-width="2.025"/><path d="M-3576.87,261.22a14.476,14.476,0,0,1,12.78-7.7" fill="none" stroke="#fff" stroke-linecap="round" stroke-linejoin="round" stroke-width="2.025"/><path d="M-3578.552,267.984a14.411,14.411,0,0,1,.575-4.04" fill="none" stroke="#fff" stroke-linecap="round" stroke-linejoin="round" stroke-width="2.025"/><path d="M-3626.009,192.774a8.11,8.11,0,0,1,8.1-8.1" fill="none" stroke="#fff" stroke-linecap="round" stroke-miterlimit="10" stroke-width="2.025"/><path d="M-3566.06,184.674h7.927" fill="none" stroke="#fff" stroke-linecap="round" stroke-miterlimit="10" stroke-width="2.025"/><path d="M-3591.687,184.674h20.7" fill="none" stroke="#fff" stroke-linecap="round" stroke-miterlimit="10" stroke-width="2.025"/><path d="M-3617.909,184.674h20.7" fill="none" stroke="#fff" stroke-linecap="round" stroke-miterlimit="10" stroke-width="2.025"/><path d="M-3626.009,208.266V192.774" fill="none" stroke="#fff" stroke-linecap="round" stroke-miterlimit="10" stroke-width="2.025"/><path d="M-3626.009,220.944v-6.685" fill="none" stroke="#fff" stroke-linecap="round" stroke-miterlimit="10" stroke-width="2.025"/><rect width="141.751" height="141.751" rx="16.2" transform="translate(-3804.109 4.674)" fill="#af6deb"/><rect width="141.751" height="141.751" rx="16.2" transform="translate(-3804.109 -3.426)" fill="#cd96ff"/><path d="M-3733.518,101.358l-37.03-65.42h74.06Zm-31.18-62.009,31.18,55.086,31.181-55.086Z" fill="#606060"/><g clip-path="url(#b)"><rect width="59.116" height="54.569" transform="translate(-3797.75 9.222)" fill="#f9ed32"/><path d="M-3778,26.778a10.664,10.664,0,0,1,10.664-10.664,10.665,10.665,0,0,1,10.665,10.664,10.665,10.665,0,0,1-10.665,10.665A10.664,10.664,0,0,1-3778,26.778Zm27.2,27.687a16.6,16.6,0,0,0-16.539-15.176,16.6,16.6,0,0,0-16.539,15.176h-.073v22.5a3.828,3.828,0,0,0,3.829,3.828h25.567a3.827,3.827,0,0,0,3.828-3.828v-22.5Z" fill="#1b75bc"/></g><g clip-path="url(#c)"><rect width="64.232" height="64.232" transform="translate(-3728.97 1.833)" fill="#91e3ff"/><path d="M-3709.793,26.778a10.665,10.665,0,0,1,10.665-10.664,10.664,10.664,0,0,1,10.664,10.664,10.664,10.664,0,0,1-10.664,10.665A10.665,10.665,0,0,1-3709.793,26.778Zm27.2,27.687a16.6,16.6,0,0,0-16.539-15.176,16.6,16.6,0,0,0-16.539,15.176h-.073v22.5a3.828,3.828,0,0,0,3.828,3.828h25.567a3.828,3.828,0,0,0,3.829-3.828v-22.5Z" fill="#f964a8"/></g><g clip-path="url(#d)"><rect width="84.127" height="87.537" transform="translate(-3771.034 70.612)" fill="#a7dd40"/><path d="M-3745.035,89.873a10.665,10.665,0,0,1,10.665-10.664,10.664,10.664,0,0,1,10.664,10.664,10.664,10.664,0,0,1-10.664,10.665A10.665,10.665,0,0,1-3745.035,89.873Zm27.2,27.687a16.606,16.606,0,0,0-16.539-15.177,16.605,16.605,0,0,0-16.539,15.177h-.073v22.5a3.827,3.827,0,0,0,3.828,3.827h25.567a3.827,3.827,0,0,0,3.828-3.827v-22.5Z" fill="#db8f2c"/></g><circle cx="25.863" cy="25.863" r="25.863" transform="translate(-3793.202 12.064)" fill="none" stroke="#f9ed32" stroke-miterlimit="10" stroke-width="4.05"/><circle cx="25.863" cy="25.863" r="25.863" transform="translate(-3724.991 12.064)" fill="none" stroke="#91e3ff" stroke-miterlimit="10" stroke-width="4.05"/><circle cx="25.863" cy="25.863" r="25.863" transform="translate(-3760.234 75.159)" fill="none" stroke="#a7dd40" stroke-miterlimit="10" stroke-width="4.05"/><path d="M-3775.564,49.353a10.559,10.559,0,0,1,8.225-3.989" fill="none" stroke="#fff" stroke-linecap="round" stroke-linejoin="round" stroke-width="2.025"/><path d="M-3777.826,54.985a10.323,10.323,0,0,1,.574-2.622" fill="none" stroke="#fff" stroke-linecap="round" stroke-linejoin="round" stroke-width="2.025"/><path d="M-3771.928,26.778a4.594,4.594,0,0,1,4.589-4.589" fill="none" stroke="#fff" stroke-linecap="round" stroke-linejoin="round" stroke-width="2.025"/><path d="M-3787.209,29a22.073,22.073,0,0,1,8.87-9.9" fill="none" stroke="#fff" stroke-linecap="round" stroke-linejoin="round" stroke-width="2.025"/><path d="M-3789.152,37.928a21.363,21.363,0,0,1,.519-4.68" fill="none" stroke="#fff" stroke-linecap="round" stroke-linejoin="round" stroke-width="2.025"/><path d="M-3707.353,49.353a10.559,10.559,0,0,1,8.224-3.989" fill="none" stroke="#fff" stroke-linecap="round" stroke-linejoin="round" stroke-width="2.025"/><path d="M-3709.616,54.985a10.366,10.366,0,0,1,.575-2.622" fill="none" stroke="#fff" stroke-linecap="round" stroke-linejoin="round" stroke-width="2.025"/><path d="M-3703.718,26.778a4.6,4.6,0,0,1,4.589-4.589" fill="none" stroke="#fff" stroke-linecap="round" stroke-linejoin="round" stroke-width="2.025"/><path d="M-3719,29a22.078,22.078,0,0,1,8.869-9.9" fill="none" stroke="#fff" stroke-linecap="round" stroke-linejoin="round" stroke-width="2.025"/><path d="M-3720.941,37.928a21.318,21.318,0,0,1,.519-4.68" fill="none" stroke="#fff" stroke-linecap="round" stroke-linejoin="round" stroke-width="2.025"/><path d="M-3742.595,112.448a10.559,10.559,0,0,1,8.224-3.989" fill="none" stroke="#fff" stroke-linecap="round" stroke-linejoin="round" stroke-width="2.025"/><path d="M-3744.858,118.08a10.324,10.324,0,0,1,.575-2.622" fill="none" stroke="#fff" stroke-linecap="round" stroke-linejoin="round" stroke-width="2.025"/><path d="M-3738.96,89.873a4.6,4.6,0,0,1,4.589-4.589" fill="none" stroke="#fff" stroke-linecap="round" stroke-linejoin="round" stroke-width="2.025"/><path d="M-3754.24,92.094a22.079,22.079,0,0,1,8.869-9.9" fill="none" stroke="#fff" stroke-linecap="round" stroke-linejoin="round" stroke-width="2.025"/><path d="M-3756.183,101.023a21.3,21.3,0,0,1,.519-4.68" fill="none" stroke="#fff" stroke-linecap="round" stroke-linejoin="round" stroke-width="2.025"/><path d="M-3796.009,12.774a8.11,8.11,0,0,1,8.1-8.1" fill="none" stroke="#fff" stroke-linecap="round" stroke-miterlimit="10" stroke-width="2.025"/><path d="M-3736.06,4.674h7.927" fill="none" stroke="#fff" stroke-linecap="round" stroke-miterlimit="10" stroke-width="2.025"/><path d="M-3761.687,4.674h20.7" fill="none" stroke="#fff" stroke-linecap="round" stroke-miterlimit="10" stroke-width="2.025"/><path d="M-3787.909,4.674h20.7" fill="none" stroke="#fff" stroke-linecap="round" stroke-miterlimit="10" stroke-width="2.025"/><path d="M-3796.009,23.1V12.774" fill="none" stroke="#fff" stroke-linecap="round" stroke-miterlimit="10" stroke-width="2.025"/><rect width="141.751" height="141.751" rx="16.2" transform="translate(-3634.109 4.674)" fill="#b38659"/><rect width="141.751" height="141.751" rx="16.2" transform="translate(-3634.109 -3.426)" fill="#c7a27c"/><path d="M-3526.4,14.714a3.349,3.349,0,0,0-3.349,3.349v1.674h-66.965V18.063a3.349,3.349,0,0,0-3.349-3.349,3.348,3.348,0,0,0-3.348,3.349V29.782a3.348,3.348,0,0,0,3.348,3.348,3.349,3.349,0,0,0,3.349-3.348V28.108h66.965v1.674a3.349,3.349,0,0,0,3.349,3.348,3.348,3.348,0,0,0,3.348-3.348V18.063A3.348,3.348,0,0,0-3526.4,14.714Z" fill="#f69320"/><path d="M-3603.413,19.737a5.021,5.021,0,0,0-5.022,5.022,5.022,5.022,0,0,0,5.022,5.023Z" fill="#b56b38"/><path d="M-3523.054,19.737a5.021,5.021,0,0,1,5.022,5.022,5.022,5.022,0,0,1-5.022,5.023Z" fill="#b56b38"/><rect width="77.011" height="8.371" transform="translate(-3601.739 106.792)" fill="#f69320"/><rect width="6.697" height="18.416" rx="3.348" transform="translate(-3529.751 101.77)" fill="#f69320"/><rect width="6.697" height="18.416" rx="3.348" transform="translate(-3603.413 101.77)" fill="#f69320"/><path d="M-3603.413,106.792a5.022,5.022,0,0,0-5.022,5.023,5.021,5.021,0,0,0,5.022,5.022Z" fill="#b56b38"/><path d="M-3523.054,106.792a5.022,5.022,0,0,1,5.022,5.023,5.021,5.021,0,0,1-5.022,5.022Z" fill="#b56b38"/><rect width="66.966" height="78.685" transform="translate(-3596.716 28.108)" fill="#fde78d"/><rect width="31.809" height="3.348" rx="1.674" transform="translate(-3579.975 34.804)" fill="#5b5b5c"/><rect width="51.898" height="3.348" rx="1.674" transform="translate(-3590.02 48.197)" fill="#5b5b5c"/><rect width="51.898" height="3.348" rx="1.674" transform="translate(-3590.02 61.59)" fill="#5b5b5c"/><rect width="51.898" height="3.348" rx="1.674" transform="translate(-3590.02 74.984)" fill="#5b5b5c"/><rect width="15.067" height="3.348" rx="1.674" transform="translate(-3584.997 88.377)" fill="#5b5b5c"/><rect width="2.636" height="14.4" rx="1.318" transform="translate(-3533.914 82.044) rotate(20.393)" fill="#15766d"/><path d="M-3528.288,77.164a.813.813,0,0,1-.075-1.571l4.057-1.277a2.758,2.758,0,0,0,1.645-1.411l4.313-8.741a.982.982,0,0,0-.676-1.4l-1.671-.357a.813.813,0,0,1-.075-1.571l3.623-1.14a2.9,2.9,0,0,0,1.734-1.487l4.842-9.813a1.058,1.058,0,0,0-.728-1.5l-2.385-.508a.814.814,0,0,1-.075-1.572l3.919-1.233a2.351,2.351,0,0,0,1.435-3.216l-.011-.025-3.818-8.336a2.385,2.385,0,0,0-3.161-1.175l-7.322,3.353a6.87,6.87,0,0,0-3.734,4.319l-.652,2.425a3.184,3.184,0,0,0,.465,2.653l2.728,3.9a.813.813,0,0,1-1.018,1.2l-2.023-.967a1.617,1.617,0,0,0-2.258,1.039l-2.9,10.78a2.953,2.953,0,0,0,.431,2.456l3.156,4.516a.813.813,0,0,1-1.017,1.2l-2.935-1.4a1.189,1.189,0,0,0-1.661.764l-2.984,11.1a1.969,1.969,0,0,0,.163,1.438l2.423,4.564a1.974,1.974,0,0,0,2.683.81l3.858-2.088a1.97,1.97,0,0,0,.831-.863l1.585-3.212a.842.842,0,0,0-.58-1.2Z" fill="#1b9a90"/><path d="M-3576.094,23.787h-20.622" fill="none" stroke="#fff" stroke-linecap="round" stroke-linejoin="round" stroke-width="2.025"/><path d="M-3561.884,23.787h-7.97" fill="none" stroke="#fff" stroke-linecap="round" stroke-linejoin="round" stroke-width="2.025"/><path d="M-3582.691,110.842h-14.025" fill="none" stroke="#fff" stroke-linecap="round" stroke-linejoin="round" stroke-width="2.025"/><path d="M-3570.8,110.842h-5.682" fill="none" stroke="#fff" stroke-linecap="round" stroke-linejoin="round" stroke-width="2.025"/><path d="M-3590.641,49.871V34.183" fill="none" stroke="#fff" stroke-linecap="round" stroke-linejoin="round" stroke-width="2.025"/><line y1="3.659" transform="translate(-3590.641 53.11)" stroke-width="2.025" stroke="#fff" stroke-linecap="round" stroke-linejoin="round" fill="none"/><path d="M-3626.009,12.774a8.11,8.11,0,0,1,8.1-8.1" fill="none" stroke="#fff" stroke-linecap="round" stroke-miterlimit="10" stroke-width="2.025"/><path d="M-3566.06,4.674h7.927" fill="none" stroke="#fff" stroke-linecap="round" stroke-miterlimit="10" stroke-width="2.025"/><path d="M-3591.687,4.674h20.7" fill="none" stroke="#fff" stroke-linecap="round" stroke-miterlimit="10" stroke-width="2.025"/><path d="M-3617.909,4.674h20.7" fill="none" stroke="#fff" stroke-linecap="round" stroke-miterlimit="10" stroke-width="2.025"/><path d="M-3626.009,28.266V12.774" fill="none" stroke="#fff" stroke-linecap="round" stroke-miterlimit="10" stroke-width="2.025"/><path d="M-3626.009,40.944V34.259" fill="none" stroke="#fff" stroke-linecap="round" stroke-miterlimit="10" stroke-width="2.025"/><circle cx="25.333" cy="25.333" r="25.333" transform="translate(-3498.9 85.098)" fill="#78efb3"/><circle cx="20.489" cy="20.489" r="20.489" transform="translate(-3498.9 257.542)" fill="#c7a27c"/><circle cx="18.483" cy="18.483" r="18.483" transform="translate(-3848.233 250.263)" fill="#cd96ff"/><circle cx="25.47" cy="25.47" r="25.47" transform="translate(-3842.828 66.255)" fill="#fff069"/><path d="M-3492.9,110.431A19.355,19.355,0,0,1-3473.567,91.1" fill="none" stroke="#fff" stroke-linecap="round" stroke-miterlimit="10" stroke-width="2"/><path d="M-3492.9,278.031a14.5,14.5,0,0,1,14.488-14.489" fill="none" stroke="#fff" stroke-linecap="round" stroke-miterlimit="10" stroke-width="2"/><path d="M-3842.233,268.746a12.5,12.5,0,0,1,12.483-12.483" fill="none" stroke="#fff" stroke-linecap="round" stroke-miterlimit="10" stroke-width="2"/><path d="M-3836.828,91.725a19.492,19.492,0,0,1,19.47-19.47" fill="none" stroke="#fff" stroke-linecap="round" stroke-miterlimit="10" stroke-width="2"/></g></g></svg>